<!-- icon666.com - MILLIONS OF FREE VECTOR ICONS --><svg viewBox="0 0 64 64" xmlns="http://www.w3.org/2000/svg"><g id="calculator"><path d="m50.724 63h-37.448a3.813 3.813 0 0 1 -3.808-3.809v-54.382a3.813 3.813 0 0 1 3.808-3.809h37.448a3.813 3.813 0 0 1 3.808 3.809v54.382a3.813 3.813 0 0 1 -3.808 3.809zm-37.448-60a1.811 1.811 0 0 0 -1.808 1.809v54.382a1.811 1.811 0 0 0 1.808 1.809h37.448a1.811 1.811 0 0 0 1.808-1.809v-54.382a1.811 1.811 0 0 0 -1.808-1.809z"></path><path d="m49.319 19.342h-34.638a1 1 0 0 1 -1-1v-11.597a1 1 0 0 1 1-1h34.638a1 1 0 0 1 1 1v11.6a1 1 0 0 1 -1 .997zm-33.638-2h32.638v-9.6h-32.638z"></path><path d="m23.3 32.255h-8.619a1 1 0 0 1 -1-1v-8.616a1 1 0 0 1 1-1h8.619a1 1 0 0 1 1 1v8.616a1 1 0 0 1 -1 1zm-7.617-2h6.617v-6.616h-6.619z"></path><path d="m36.309 32.255h-8.618a1 1 0 0 1 -1-1v-8.616a1 1 0 0 1 1-1h8.618a1 1 0 0 1 1 1v8.616a1 1 0 0 1 -1 1zm-7.618-2h6.618v-6.616h-6.618z"></path><path d="m49.319 32.255h-8.619a1 1 0 0 1 -1-1v-8.616a1 1 0 0 1 1-1h8.617a1 1 0 0 1 1 1v8.616a1 1 0 0 1 -.998 1zm-7.617-2h6.617v-6.616h-6.619z"></path><path d="m23.3 58.255h-8.619a1 1 0 0 1 -1-1v-21.616a1 1 0 0 1 1-1h8.619a1 1 0 0 1 1 1v21.616a1 1 0 0 1 -1 1zm-7.617-2h6.617v-19.616h-6.619z"></path><path d="m36.309 45.255h-8.618a1 1 0 0 1 -1-1v-8.616a1 1 0 0 1 1-1h8.618a1 1 0 0 1 1 1v8.616a1 1 0 0 1 -1 1zm-7.618-2h6.618v-6.616h-6.618z"></path><path d="m49.319 45.255h-8.619a1 1 0 0 1 -1-1v-8.616a1 1 0 0 1 1-1h8.617a1 1 0 0 1 1 1v8.616a1 1 0 0 1 -.998 1zm-7.617-2h6.617v-6.616h-6.619z"></path><path d="m36.309 58.255h-8.618a1 1 0 0 1 -1-1v-8.616a1 1 0 0 1 1-1h8.618a1 1 0 0 1 1 1v8.616a1 1 0 0 1 -1 1zm-7.618-2h6.618v-6.616h-6.618z"></path><path d="m49.319 58.255h-8.619a1 1 0 0 1 -1-1v-8.616a1 1 0 0 1 1-1h8.617a1 1 0 0 1 1 1v8.616a1 1 0 0 1 -.998 1zm-7.617-2h6.617v-6.616h-6.619z"></path></g></svg>